<?xml version="1.0" standalone="no"?>
<!DOCTYPE svg PUBLIC "-//W3C//DTD SVG 20010904//EN"
 "http://www.w3.org/TR/2001/REC-SVG-20010904/DTD/svg10.dtd">
<svg version="1.0" xmlns="http://www.w3.org/2000/svg"
 width="512.000000pt" height="512.000000pt" viewBox="0 0 512.000000 512.000000"
 preserveAspectRatio="xMidYMid meet">
<metadata>
Created by potrace 1.11, written by Peter Selinger 2001-2013
</metadata>
<g transform="translate(0.000000,512.000000) scale(0.100000,-0.100000)"
fill="#000000" stroke="none">
<path d="M2248 5115 c-2 -2 -50 -6 -108 -9 -112 -7 -162 -11 -250 -20 -56 -5
-84 -9 -200 -28 -36 -5 -81 -12 -100 -15 -19 -2 -51 -8 -70 -13 -19 -5 -50
-12 -68 -15 -88 -15 -273 -65 -402 -109 -58 -20 -112 -38 -120 -40 -72 -20
-348 -159 -432 -218 l-61 -43 6 -385 c3 -212 8 -401 11 -420 3 -19 8 -73 11
-120 12 -161 15 -195 20 -255 5 -68 11 -116 18 -160 3 -16 8 -50 11 -75 3 -25
8 -56 11 -69 2 -13 7 -49 10 -80 4 -31 8 -67 10 -81 2 -14 7 -45 10 -70 4 -25
15 -90 26 -145 11 -55 22 -115 25 -132 27 -170 179 -707 234 -828 5 -11 17
-42 26 -70 9 -27 29 -78 45 -113 16 -35 29 -65 29 -68 0 -7 100 -206 136 -271
19 -35 60 -102 92 -150 31 -49 59 -93 62 -98 3 -6 31 -44 63 -86 31 -42 57
-81 57 -86 0 -6 -16 -14 -35 -17 -39 -8 -240 -72 -260 -84 -14 -8 -18 6 97
-334 l74 -216 30 13 c139 65 285 116 454 159 91 22 121 22 140 -4 15 -19 224
-148 317 -194 270 -135 424 -176 536 -142 23 7 45 13 49 15 4 1 13 3 20 6 7 2
31 9 53 16 102 30 366 172 423 226 7 7 17 13 20 13 4 0 25 16 47 35 22 20 47
39 55 44 12 7 141 -17 233 -44 9 -3 25 -7 35 -10 41 -10 203 -66 277 -94 44
-17 83 -31 87 -31 8 0 7 -6 77 285 28 116 54 219 57 231 6 24 -2 27 -206 84
-63 18 -117 34 -119 36 -1 1 11 22 28 46 17 24 66 95 109 158 42 63 79 117 82
120 16 16 212 400 205 400 -2 0 7 24 20 53 68 148 199 575 240 782 3 11 11 52
19 90 18 80 23 112 32 175 3 25 8 48 10 51 2 4 6 28 9 55 3 27 8 60 10 74 2
14 7 48 10 75 3 28 8 66 11 85 3 19 7 58 10 85 2 28 9 86 14 130 11 86 20 192
25 290 20 402 23 638 12 905 l-7 155 -42 38 c-94 84 -263 186 -398 241 -36 15
-74 31 -85 37 -12 6 -27 11 -35 13 -8 2 -28 8 -45 15 -62 26 -295 89 -388 105
-15 3 -35 7 -45 10 -9 3 -33 7 -52 10 -19 3 -75 13 -125 21 -49 9 -112 18
-140 21 -27 2 -66 6 -85 8 -32 5 -70 8 -235 22 -55 5 -723 13 -727 9z"/>
</g>
</svg>
